<svg xmlns="http://www.w3.org/2000/svg" version="1.1" xmlns:xlink="http://www.w3.org/1999/xlink" xmlns:svgjs="http://svgjs.dev/svgjs" width="36" height="36" viewBox="0 0 2000 2000"><g transform="matrix(1,0,0,1,-0.28443113772425477,-0.28443113772459583)"><svg viewBox="0 0 334 334" data-background-color="#ffffff" preserveAspectRatio="xMidYMid meet" height="2000" width="2000" xmlns="http://www.w3.org/2000/svg" xmlns:xlink="http://www.w3.org/1999/xlink"><g id="tight-bounds" transform="matrix(1,0,0,1,0.04749999999998522,0.04750000000001364)"><svg viewBox="0 0 333.90454557049503 333.90454557049503" height="333.90454557049503" width="333.90454557049503"><g><svg></svg></g><g><svg viewBox="0 0 333.90454557049503 333.90454557049503" height="333.90454557049503" width="333.90454557049503"><g><path d="M0 166.952c0-92.205 74.747-166.952 166.952-166.952 92.205 0 166.952 74.747 166.953 166.952 0 92.205-74.747 166.952-166.953 166.953-92.205 0-166.952-74.747-166.952-166.953zM166.952 316.63c82.665 0 149.677-67.013 149.678-149.678 0-82.665-67.013-149.677-149.678-149.677-82.665 0-149.677 67.013-149.677 149.677 0 82.665 67.013 149.677 149.677 149.678z" data-fill-palette-color="tertiary" fill="#ff0000" stroke="transparent"></path><ellipse rx="160.27418187383762" ry="160.27418187383762" cx="166.95227278524752" cy="166.95227278524752" fill="#ff0000" stroke="transparent" stroke-width="0" fill-opacity="1" data-fill-palette-color="tertiary"></ellipse></g><g transform="matrix(1,0,0,1,98.38458882981645,71.17305217166896)"><svg viewBox="0 0 137.13536791086213 191.55844122715712" height="191.55844122715712" width="137.13536791086213"><g><svg viewBox="0 0 137.13536791086213 191.55844122715712" height="191.55844122715712" width="137.13536791086213"><g><svg viewBox="0 0 137.13536791086213 191.55844122715712" height="191.55844122715712" width="137.13536791086213"><g><svg viewBox="0 0 137.13536791086213 191.55844122715712" height="191.55844122715712" width="137.13536791086213"><g id="textblocktransform"><svg viewBox="0 0 137.13536791086213 191.55844122715712" height="191.55844122715712" width="137.13536791086213" id="textblock"><g><svg viewBox="0 0 137.13536791086213 191.55844122715712" height="191.55844122715712" width="137.13536791086213"><g transform="matrix(1,0,0,1,0,0)"><svg width="137.13536791086213" viewBox="4.25 -35 25.450000762939453 35.54999923706055" height="191.55844122715712" data-palette-color="#ffffff"><path d="M6.05 0.55Q5 0.55 4.25-0.05L4.25-0.05Q4.85-1.85 4.85-5.7L4.85-5.7 4.8-28.6Q4.8-32.6 4.45-34.5L4.45-34.5Q5-35 6.35-35L6.35-35Q7.35-35 7.55-34.75L7.55-34.75Q22.95-12.6 27.05-5.55L27.05-5.55 26.2-30.45Q26.1-32.15 26.45-33.35 26.8-34.55 27.55-34.9L27.55-34.9Q27.75-34.95 28.25-34.95L28.25-34.95Q28.9-34.95 29.35-34.75L29.35-34.75Q29.3-34.2 29.4-32.75L29.4-32.75 29.45-31.15 29.45-5.65Q29.45-1.8 29.7-0.05L29.7-0.05Q29.5 0.2 28.95 0.35 28.4 0.5 27.85 0.5L27.85 0.5Q27.35 0.5 26.85 0.3L26.85 0.3Q21.95-5.65 16.63-13.68 11.3-21.7 7.35-28.4L7.35-28.4 8.1-1.9Q8.15-0.8 7.53-0.13 6.9 0.55 6.05 0.55L6.05 0.55Z" opacity="1" transform="matrix(1,0,0,1,0,0)" fill="#ffffff" class="undefined-text-0" data-fill-palette-color="quaternary" id="text-0"></path></svg></g></svg></g></svg></g></svg></g><g></g></svg></g></svg></g></svg></g></svg></g><defs></defs></svg><rect width="333.90454557049503" height="333.90454557049503" fill="none" stroke="none" visibility="hidden"></rect></g></svg></g></svg>
